<svg xmlns="http://www.w3.org/2000/svg" width="100%" viewBox="0 0 512 512" height="150" xmlns:v="https://vecta.io/nano"><path fill="#4c5b62" d="M150.064 314.104c-2.541 8.136-4.933 9.888-13.518 9.889-31.451.001-62.903-.225-94.351.093-16.438.166-32.946-9.292-39.173-26.29-.26-.71-.851-1.299-1.655-1.87V31.543c.805-1.041 1.396-1.631 1.656-2.342C9.256 12.195 25.779 2.893 42.267 2.913l421.944.136c4.113.001 8.27.355 12.332 1.006 16.717 2.679 31.5 19.744 31.484 37.037l.068 243.467c.063 20.745-17.924 39.441-39.532 39.435-9.332-.003-18.683-.365-27.99.119-6.979.362-12.173-2.628-13.367-10.257 2.324-8.163 5.084-10.402 13.239-10.478l24.495-.025c15.16-.04 22.816-7.615 22.819-22.686l-.001-234.452c-.003-14.823-7.671-22.558-22.435-22.56-140.638-.019-281.276-.018-421.914 0-14.796.002-22.359 7.68-22.361 22.561v234.452c.001 15.125 7.559 22.671 22.749 22.682l89.482.007c11.504.001 12.599.705 16.785 10.746z"/><path fill="#4c5a62" d="M513 381.532c-12.815 13.746-30.873 17.207-46.464 25.287-.712.369-1.387.808-4.036 2.364 2.695 1.827 5.004 2.944 6.739 4.645l28.309 28.23c11.788 11.809 13.256 26.77 2.848 39.648a102.14 102.14 0 0 1-18.687 17.847c-12.754 9.393-27.219 6.651-37.918-5.049-10.495-11.477-21.803-22.209-33.398-33.917l-6.357 13.729c-4.135 9.165-7.811 18.567-12.465 27.458-3.931 7.511-11.144 10.114-19.345 9.131-7.926-.95-13.37-5.646-16.107-13.028l-47.234-127.987c-4.853-13.155-10.154-26.164-14.417-39.506-1.529-4.786-.608-10.354-.483-16.271 8.106-20.234 23.594-27.175 43.272-19.906l41.169 15.257c5.126 1.85 10.442 3.172 15.875 5.015 1.732.881 3.251 1.507 4.79 2.079l89.4 33.157c8.833 3.251 18.024 5.755 23.592 14.331.084.129.601-.025.917-.046v17.532m-168.192 26.181l30.105 81.315 2.895-6.079 18.147-41.658c4.646-10.627 11.701-11.941 19.948-3.712l43.493 43.463c4.533 4.516 7.856 4.516 12.384.1l10.615-10.593c5.691-5.726 5.72-8.483.044-14.173l-43.098-43.151c-6.837-6.873-5.491-14.3 3.281-18.255l33.742-15.055 14.884-6.78c-2.711-1.179-4.286-1.955-5.922-2.563l-101.099-37.514-55.247-20.448c-6.086-2.243-10.818-1.054-13.716 3.333-2.607 3.947-1.609 7.933-.115 11.951l29.658 79.819z"/><path fill="#bbe7ba" d="M427.206 313.856l-32.652.254c-5.685-1.474-11.001-2.797-16.127-4.647l-41.169-15.257c-19.678-7.269-35.165-.328-43.108 19.525-8.167.349-16.175.374-24.632.076-1.595-7.186-4.56-10.05-11.312-10.12a1822.08 1822.08 0 0 0-38.342.001c-6.958.074-10.04 3.179-10.877 10.277-6.345.006-12.689.013-19.501-.382-1.701-6.838-5.434-10.315-10.871-10.091s-8.925 4.017-9.628 10.471l-18.458.095c-4.648-9.995-5.744-10.699-17.247-10.7-29.827-.002-59.655.013-89.482-.007-15.191-.011-22.748-7.557-22.749-22.682V46.217c.001-14.881 7.564-22.56 22.361-22.561h421.914c14.763.002 22.431 7.737 22.435 22.56l.001 234.452c-.003 15.071-7.659 22.646-22.819 22.686-8.165.021-16.331-.051-24.495.025-8.155.076-10.916 2.316-13.239 10.478M118.801 98.275c-.791 2.279-2.261 4.556-2.271 6.839l-.072 103.499c.01 5.65 2.539 8.408 8.239 8.469 14.162.152 28.349.42 42.485-.237 12.79-.594 22.513-8.341 25.084-20.684 1.733-8.319 1.729-17.19 1.198-25.732-.467-7.505-4.991-13.269-11.909-16.792-1.141-.581-2.208-1.31-3.415-2.034.433-.399.643-.677.922-.837 10.865-6.279 14.153-19.593 11.287-34.212-2.297-11.72-9.578-18.379-23.307-19.638-13.557-1.243-27.28-.766-40.931-.824-2.214-.009-4.432 1.12-7.309 2.184m90.384 15.249l.089 67.451c.265 21.158 10.407 33.382 30.156 36.582 5.041.817 10.306.687 15.439.425 20.377-1.04 33.614-14.153 33.953-34.535.441-26.474.192-52.96.09-79.441-.007-1.804-.743-4.266-2.036-5.285-4.585-3.615-9.899-3.422-15.167-1.516-4.612 1.669-4.439 5.664-4.437 9.58l-.082 74.446c-.094 12.044-6.235 17.972-17.83 18.028-11.884.058-18.3-6.071-18.362-18.08l-.06-74.947c-.005-7.498-2.855-10.186-10.77-10.231-7.96-.044-10.939 2.675-10.981 10.037l-.003 7.484m148.391 53.118l32.672-57.214c1.128-2.011 1.807-5.523.807-7.237-2.719-4.662-7.797-5.865-12.941-6.155-4.309-.243-5.956 2.987-7.62 6.135l-21.487 40.577c-.808 1.522-1.75 2.973-2.922 4.95-1.073-1.814-1.78-2.905-2.385-4.05l-22.617-42.8c-3.07-5.734-9.17-6.441-16.382-2.185-5.296 3.125-5.817 5.789-2.245 11.974l30.14 52.338c1.541 2.734 2.398 6.199 2.476 9.353.287 11.647.094 23.306.123 34.96.018 7.198 3.19 9.995 11.123 9.919 7.694-.073 10.572-2.749 10.621-9.871l.639-40.694m-30.73 54.03c-.005-1.333.047-2.67-.025-3.999-.349-6.511-4.353-10.735-10.132-10.732-5.888.003-9.833 4.137-9.885 10.763l-.04 38.499c-.012 5.082 2.142 8.683 7.043 10.299 6.726 2.217 12.89-2.85 12.997-10.872l.042-33.958m-50.363 39.345l-17.324-17.275c-4.769-4.618-10.472-4.777-14.679-.668-4.143 4.046-4.104 10.054.426 14.669l27.543 27.534c4.479 4.383 10.207 4.411 14.297.472 4.238-4.082 4.206-9.908-.254-14.676-3.069-3.28-6.332-6.377-10.007-10.056m101.912-27.122l-20.036 20.173c-3.9 4.101-3.617 10.21.152 13.952 3.895 3.867 9.702 4.135 13.902.059l28.571-28.568c4.099-4.219 3.88-9.976.047-13.911-3.808-3.909-9.951-3.943-14.339.073-2.696 2.468-5.204 5.141-8.297 8.222z"/><path d="M258.75 381.75l-10.498 10.489c-5.129 5.072-11.061 5.333-15.781.727-4.817-4.7-4.64-10.19.728-15.63l26.833-26.857c4.848-4.816 10.798-4.971 15.422-.521 4.756 4.576 4.776 10.042-.235 15.266-5.301 5.527-10.805 10.859-16.47 16.526zm-49.758-67.391c.83-7.491 3.912-10.595 10.87-10.67l38.342-.001c6.752.07 9.717 2.934 10.853 10.206-.72 6.982-3.87 10.067-10.131 10.089a5731.84 5731.84 0 0 1-39.882 0c-6.064-.021-9.166-2.945-10.053-9.624z" fill="#4b5961"/><path fill="#4c5a62" d="M168.993 314.357c.695-6.848 4.183-10.641 9.62-10.864s9.17 3.254 10.404 10.074c.732 6.474-4.723 10.348-9.867 10.419-5.82.081-9.277-3.059-10.157-9.629z"/><path fill="#b2d4e3" d="M344.656 407.355l-29.506-79.461c-1.493-4.018-2.491-8.004.115-11.951 2.897-4.387 7.63-5.576 13.716-3.333l55.247 20.448 101.099 37.514c1.637.608 3.211 1.383 5.922 2.563l-14.884 6.78-33.742 15.055c-8.773 3.955-10.119 11.382-3.281 18.255l43.098 43.151c5.675 5.69 5.647 8.447-.044 14.173l-10.615 10.593c-4.528 4.416-7.852 4.416-12.384-.1l-43.493-43.463c-8.247-8.23-15.302-6.915-19.948 3.712l-18.147 41.658c-.714 1.635-1.531 3.225-2.895 6.079l-30.257-81.673z"/><path fill="#4c5a62" d="M119.131 98.044c2.547-.833 4.765-1.963 6.979-1.953 13.651.058 27.374-.419 40.931.824 13.729 1.259 21.009 7.918 23.307 19.638 2.866 14.619-.423 27.933-11.287 34.212-.278.161-.489.439-.922.837 1.208.724 2.274 1.453 3.415 2.034 6.918 3.523 11.442 9.287 11.909 16.792.531 8.543.535 17.413-1.198 25.732-2.571 12.343-12.294 20.089-25.084 20.684-14.136.657-28.323.39-42.485.237-5.7-.061-8.229-2.819-8.239-8.469l.072-103.499c.01-2.283 1.48-4.559 2.602-7.069m39.061 100.166c7.833-.722 12.024-4.004 13.758-10.772 2.623-10.24.255-21.31-5.385-24.92-.967-.619-2.072-1.34-3.153-1.413l-25.026-1.443v38.598l19.806-.051m-5.79-83.242h-14.115v27.974c7.113 0 13.921.296 20.689-.097 5.124-.298 8.504-3.469 9.996-8.451 3.535-11.802-2.54-19.355-16.57-19.426z"/><path fill="#4d5b63" d="M209.185 113.029l.003-6.989c.042-7.362 3.021-10.081 10.981-10.037 7.916.044 10.766 2.732 10.77 10.231l.06 74.947c.062 12.009 6.477 18.138 18.362 18.08 11.595-.056 17.736-5.984 17.83-18.028l.082-74.446c-.001-3.916-.175-7.911 4.438-9.58 5.268-1.907 10.582-2.1 15.167 1.516 1.293 1.02 2.029 3.481 2.036 5.285l-.09 79.441c-.34 20.382-13.577 33.495-33.953 34.535-5.133.262-10.398.392-15.439-.425-19.749-3.201-29.891-15.424-30.156-36.582l-.089-67.945z"/><path d="M357.393 167.02l-.456 40.315c-.048 7.122-2.926 9.798-10.621 9.871-7.933.075-11.105-2.721-11.123-9.919l-.123-34.96c-.078-3.154-.934-6.618-2.476-9.353l-30.14-52.338c-3.572-6.185-3.051-8.849 2.245-11.974 7.213-4.256 13.313-3.549 16.382 2.185l22.617 42.8c.605 1.145 1.313 2.236 2.385 4.05 1.172-1.977 2.114-3.428 2.922-4.95l21.487-40.577c1.664-3.147 3.311-6.377 7.62-6.135 5.144.29 10.222 1.493 12.941 6.155 1 1.715.32 5.226-.807 7.237l-32.854 57.592zm-30.547 54.131l-.042 33.478c-.107 8.022-6.271 13.09-12.997 10.872-4.901-1.616-7.054-5.217-7.043-10.299l.04-38.499c.052-6.626 3.998-10.76 9.885-10.763 5.779-.003 9.783 4.221 10.132 10.732.071 1.33.02 2.666.025 4.479z" fill="#4d5b62"/><path fill="#4c5b62" d="M276.733 260.267c3.426 3.429 6.689 6.527 9.758 9.806 4.461 4.768 4.493 10.594.254 14.676-4.09 3.939-9.818 3.912-14.297-.472l-27.543-27.534c-4.53-4.615-4.568-10.623-.426-14.669 4.207-4.109 9.911-3.95 14.679.668 5.858 5.672 11.557 11.509 17.574 17.525z"/><path fill="#4c5a62" d="M378.645 232.645c2.843-2.831 5.351-5.504 8.047-7.971 4.389-4.017 10.531-3.982 14.339-.073 3.833 3.935 4.052 9.691-.047 13.911l-28.571 28.568c-4.2 4.076-10.007 3.809-13.902-.059-3.769-3.742-4.052-9.851-.152-13.952 6.53-6.866 13.343-13.463 20.286-20.423z"/><path d="M157.727 198.236l-19.34.025v-38.598l25.026 1.443c1.082.073 2.186.794 3.153 1.413 5.64 3.609 8.008 14.68 5.385 24.92-1.734 6.768-5.926 10.05-14.224 10.797zm-4.844-83.268c13.55.072 19.626 7.624 16.09 19.426-1.492 4.982-4.872 8.153-9.996 8.451-6.768.393-13.575.097-20.689.097v-27.974h14.595z" fill="#bae6b9"/></svg>