<svg height="497pt" viewBox="0 -1 497.02 497" width="497pt" xmlns="http://www.w3.org/2000/svg"><path d="m249.121094 108.460938c77.320312 0 140 62.519531 140 139.660156s-62.679688 139.648437-140 139.648437c-77.320313 0-140-62.519531-140-139.648437 0-77.132813 62.679687-139.660156 140-139.660156zm0 0" fill="#bbe7ba"/><g fill="#B3D5E4"><path d="m249.121094 64.570312c-4.417969 0-8-3.582031-8-8v-48.558593c0-4.421875 3.582031-8.0000002 8-8.0000002 4.417968 0 8 3.5781252 8 8.0000002v48.558593c0 4.417969-3.582032 8-8 8zm0 0"/><path d="m249.121094 495.828125c-4.417969 0-8-3.578125-8-8v-48.558594c0-4.417969 3.582031-8 8-8 4.417968 0 8 3.582031 8 8v48.558594c0 4.421875-3.582032 8-8 8zm0 0"/><path d="m489.019531 256.078125h-48.550781c-4.417969 0-8-3.578125-8-8 0-4.417969 3.582031-8 8-8h48.550781c4.417969 0 8 3.582031 8 8 0 4.421875-3.582031 8-8 8zm0 0"/><path d="m56.550781 256.078125h-48.550781c-4.417969 0-8-3.578125-8-8 0-4.417969 3.582031-8 8-8h48.550781c4.417969 0 8 3.582031 8 8 0 4.421875-3.582031 8-8 8zm0 0"/></g><path d="m467.078125 226.121094c-3.992187-.007813-7.367187-2.953125-7.914063-6.910156-12.984374-94.140626-86.996093-168.15625-181.136718-181.144532-2.890625-.324218-5.375-2.1875-6.496094-4.871094-1.121094-2.683593-.695312-5.761718 1.109375-8.042968 1.800781-2.28125 4.699219-3.402344 7.570313-2.933594 101.238281 13.972656 180.835937 93.570312 194.800781 194.8125.601562 4.378906-2.457031 8.414062-6.832031 9.019531-.367188.046875-.734376.070313-1.101563.070313zm0 0" fill="#4b5961"/><path d="m219.128906 474.089844c-.367187 0-.734375-.023438-1.097656-.074219-101.238281-13.972656-180.828125-93.566406-194.800781-194.800781-.605469-4.375 2.453125-8.414063 6.832031-9.019532 4.375-.601562 8.414062 2.453126 9.015625 6.832032 12.992187 94.132812 87 168.144531 181.132813 181.136718 4.167968.570313 7.179687 4.273438 6.894531 8.46875-.285157 4.199219-3.773438 7.457032-7.980469 7.457032zm0 0" fill="#4b5961"/><path d="m31.160156 226.121094c-.367187 0-.734375-.027344-1.101562-.078125-4.375-.601563-7.433594-4.640625-6.828125-9.019531 13.964843-101.234376 93.5625-180.832032 194.796875-194.796876 4.378906-.605468 8.417968 2.453126 9.019531 6.828126.605469 4.378906-2.453125 8.417968-6.832031 9.019531-94.136719 12.988281-168.152344 87-181.140625 181.140625-.546875 3.953125-3.921875 6.898437-7.914063 6.90625zm0 0" fill="#4b5961"/><path d="m279.109375 474.089844c-4.207031 0-7.691406-3.257813-7.976563-7.457032-.289062-4.195312 2.726563-7.898437 6.894532-8.46875 94.136718-12.988281 168.148437-87 181.136718-181.136718.605469-4.378906 4.644532-7.4375 9.019532-6.832032 4.378906.605469 7.4375 4.640626 6.832031 9.019532-13.96875 101.242187-93.566406 180.835937-194.804687 194.804687-.367188.050781-.734376.074219-1.101563.070313zm0 0" fill="#4b5961"/><path d="m293.058594 187.921875c4.417968 0 8-3.582031 8-8 0-4.421875-3.582032-8-8-8h-89.097656c-4.417969 0-8 3.578125-8 8 0 4.417969 3.582031 8 8 8h25.5c13.589843-.160156 25.566406 8.886719 29.136718 22h-54.636718c-4.417969 0-8 3.578125-8 8 0 4.417969 3.582031 8 8 8h54.648437c-3.644531 13.0625-15.582031 22.074219-29.148437 22h-25.5c-3.28125.027344-6.21875 2.042969-7.425782 5.097656-1.207031 3.054688-.441406 6.535157 1.933594 8.800781l63.71875 60.226563c1.539062 1.457031 3.597656 2.246094 5.71875 2.1875s4.132812-.957031 5.589844-2.5c3.035156-3.234375 2.890625-8.308594-.320313-11.367187l-49.101562-46.445313h5.386719c12.253906.074219 24.023437-4.761719 32.6875-13.429687 6.667968-6.699219 11.144531-15.269532 12.832031-24.570313h18.078125c4.417968 0 8-3.582031 8-8 0-4.421875-3.582032-8-8-8h-18.085938c-1.28125-8.21875-4.964844-15.871094-10.585937-22zm0 0" fill="#4b5961"/></svg>